<svg xmlns="http://www.w3.org/2000/svg" viewBox="0 0 122.81 32">
  <defs>
    <style>
      .cls-1 {
        fill: #fff;
        opacity: 0;
      }

      .cls-2 {
        fill: #cc0025;
      }

      .cls-3 {
        fill: #ff002e;
      }

      .cls-4 {
        fill: #8c002a;
      }

      .cls-5 {
        fill: #133881;
      }

      .cls-6 {
        fill: #de0a1b;
      }
    </style>
  </defs>
  <g id="Logo-novaCapta" transform="translate(-18.901 -7.233)">
    <rect id="Rechteck_16" data-name="Rechteck 16" class="cls-1" transform="translate(18.901 7.233)"/>
    <g id="novaCapta_logo" transform="translate(-251.499 -351.945)">
      <g id="Zeichen" transform="translate(271.4 367.261)">
        <path id="Pfad_174" data-name="Pfad 174" class="cls-2" d="M279.986,367.7,271.4,384.859h17.159Z" transform="translate(-271.4 -367.7)"/>
        <path id="Pfad_175" data-name="Pfad 175" class="cls-3" d="M350.873,367.7v17.159L342.3,367.7Z" transform="translate(-333.714 -367.7)"/>
        <path id="Pfad_176" data-name="Pfad 176" class="cls-4" d="M271.4,367.7v17.159l8.586-17.159Z" transform="translate(-271.4 -367.7)"/>
      </g>
      <g id="Schrift" transform="translate(293.294 367.2)">
        <path id="Pfad_177" data-name="Pfad 177" class="cls-5" d="M452.212,394.518h2.361v1.574a3.718,3.718,0,0,1,3.209-1.792c2.313,0,3.657,1.562,3.657,3.936V404.8h-2.361v-5.837c0-1.6-.8-2.507-2.2-2.507a2.284,2.284,0,0,0-2.313,2.555V404.8H452.2V394.518Z" transform="translate(-452.2 -391.018)"/>
        <path id="Pfad_178" data-name="Pfad 178" class="cls-5" d="M544.1,399.813v-.036a5.487,5.487,0,0,1,10.971-.036v.036a5.375,5.375,0,0,1-5.51,5.352A5.319,5.319,0,0,1,544.1,399.813Zm8.61,0v-.036a3.174,3.174,0,0,0-3.161-3.306,3.087,3.087,0,0,0-3.1,3.27v.036a3.173,3.173,0,0,0,3.136,3.294A3.1,3.1,0,0,0,552.71,399.813Z" transform="translate(-532.971 -391.106)"/>
        <path id="Pfad_179" data-name="Pfad 179" class="cls-5" d="M638.3,396.1h2.531l2.761,7.556,2.785-7.556h2.47l-4.2,10.366h-2.119Z" transform="translate(-615.764 -392.6)"/>
        <path id="Pfad_180" data-name="Pfad 180" class="cls-5" d="M729.2,402.459v-.036c0-2.216,1.732-3.306,4.25-3.306a8.537,8.537,0,0,1,2.761.424v-.254c0-1.465-.9-2.24-2.555-2.24a7.185,7.185,0,0,0-2.943.642l-.618-1.853a8.734,8.734,0,0,1,3.875-.836,4.591,4.591,0,0,1,3.4,1.15,4.248,4.248,0,0,1,1.114,3.173v6.091h-2.3V404.13a4.184,4.184,0,0,1-3.354,1.5C730.92,405.632,729.2,404.518,729.2,402.459Zm7.048-.739v-.7a6.627,6.627,0,0,0-2.337-.412c-1.514,0-2.41.642-2.41,1.72v.036c0,.993.872,1.562,2.01,1.562C735.061,403.925,736.248,403.029,736.248,401.721Z" transform="translate(-695.657 -391.634)"/>
        <path id="Pfad_181" data-name="Pfad 181" class="cls-6" d="M931.4,402.459v-.036c0-2.216,1.732-3.306,4.25-3.306a8.536,8.536,0,0,1,2.761.424v-.254c0-1.465-.9-2.24-2.555-2.24a7.185,7.185,0,0,0-2.943.642l-.618-1.853a8.734,8.734,0,0,1,3.875-.836,4.591,4.591,0,0,1,3.4,1.15,4.249,4.249,0,0,1,1.114,3.173v6.091h-2.3V404.13a4.184,4.184,0,0,1-3.354,1.5C933.107,405.632,931.4,404.518,931.4,402.459Zm7.048-.739v-.7a6.627,6.627,0,0,0-2.337-.412c-1.514,0-2.41.642-2.41,1.72v.036c0,.993.872,1.562,2.01,1.562C937.261,403.925,938.448,403.029,938.448,401.721Z" transform="translate(-873.372 -391.634)"/>
        <path id="Pfad_182" data-name="Pfad 182" class="cls-6" d="M1027.6,394.606h2.361v1.72a4.125,4.125,0,0,1,3.5-1.925c2.41,0,4.771,1.913,4.771,5.34v.036c0,3.4-2.337,5.34-4.771,5.34a4.17,4.17,0,0,1-3.5-1.816v4.711H1027.6Zm8.234,5.159v-.036a3.048,3.048,0,0,0-2.943-3.294,3.1,3.1,0,0,0-3,3.294v.036a3.108,3.108,0,0,0,3,3.294A3.006,3.006,0,0,0,1035.834,399.764Z" transform="translate(-957.923 -391.106)"/>
        <path id="Pfad_183" data-name="Pfad 183" class="cls-6" d="M1125.408,383.157v-5.413H1124.1v-2.022h1.308V372.9h2.361v2.821h2.761v2.022h-2.761v5.05a1.122,1.122,0,0,0,1.272,1.284,3.264,3.264,0,0,0,1.465-.351v1.925a4.092,4.092,0,0,1-2.119.521C1126.631,386.172,1125.408,385.409,1125.408,383.157Z" transform="translate(-1042.737 -372.21)"/>
        <path id="Pfad_184" data-name="Pfad 184" class="cls-6" d="M1192.4,402.459v-.036c0-2.216,1.732-3.306,4.25-3.306a8.536,8.536,0,0,1,2.761.424v-.254c0-1.465-.9-2.24-2.555-2.24a7.187,7.187,0,0,0-2.943.642l-.617-1.853a8.734,8.734,0,0,1,3.875-.836,4.591,4.591,0,0,1,3.4,1.15,4.249,4.249,0,0,1,1.114,3.173v6.091h-2.3V404.13a4.184,4.184,0,0,1-3.354,1.5C1194.12,405.632,1192.4,404.518,1192.4,402.459Zm7.06-.739v-.7a6.626,6.626,0,0,0-2.337-.412c-1.514,0-2.41.642-2.41,1.72v.036c0,.993.872,1.562,2.01,1.562C1198.273,403.925,1199.46,403.029,1199.46,401.721Z" transform="translate(-1102.767 -391.634)"/>
        <path id="Pfad_185" data-name="Pfad 185" class="cls-6" d="M823.728,379.455a7.018,7.018,0,0,1-2.228-5.195v-.036a6.872,6.872,0,0,1,7-7.023,7.011,7.011,0,0,1,4.868,1.707l-1.09,2.168a5.422,5.422,0,0,0-3.8-1.683,4.57,4.57,0,0,0-4.48,4.8v.036a5.132,5.132,0,0,0,.884,2.918m1.877,1.538a4.3,4.3,0,0,0,1.732.351,5.283,5.283,0,0,0,3.9-1.744l1.017,2.059a7.4,7.4,0,0,1-7.677,1.38" transform="translate(-776.78 -367.2)"/>
      </g>
    </g>
  </g>
</svg>
