
<svg xmlns="http://www.w3.org/2000/svg" version="1.1" viewBox="0 0 596 183" style="shape-rendering:geometricPrecision; text-rendering:geometricPrecision; image-rendering:optimizeQuality; fill-rule:evenodd; clip-rule:evenodd" xmlns:xlink="http://www.w3.org/1999/xlink">
<g><path style="opacity:1" fill="#cbd5df" d="M -0.5,-0.5 C 60.5,-0.5 121.5,-0.5 182.5,-0.5C 202.457,60.483 202.457,121.483 182.5,182.5C 121.5,182.5 60.5,182.5 -0.5,182.5C -0.5,121.5 -0.5,60.5 -0.5,-0.5 Z"/></g>
<g><path style="opacity:0.995" fill="#003366" d="M 182.5,-0.5 C 243.833,-0.5 305.167,-0.5 366.5,-0.5C 366.5,60.5 366.5,121.5 366.5,182.5C 305.167,182.5 243.833,182.5 182.5,182.5C 202.457,121.483 202.457,60.483 182.5,-0.5 Z"/></g>
<g><path style="opacity:0.79" fill="#000000" d="M 395.5,29.5 C 398.119,29.2317 400.619,29.565 403,30.5C 404.803,36.2422 406.803,41.9089 409,47.5C 411.197,41.9089 413.197,36.2422 415,30.5C 417.381,29.565 419.881,29.2317 422.5,29.5C 422.5,38.1667 422.5,46.8333 422.5,55.5C 420.833,55.5 419.167,55.5 417.5,55.5C 417.666,50.1563 417.499,44.8229 417,39.5C 415.333,44.1667 413.667,48.8333 412,53.5C 410.507,55.5598 408.674,55.8932 406.5,54.5C 404.765,49.4616 402.932,44.4616 401,39.5C 400.501,44.8229 400.334,50.1563 400.5,55.5C 398.833,55.5 397.167,55.5 395.5,55.5C 395.5,46.8333 395.5,38.1667 395.5,29.5 Z"/></g>
<g><path style="opacity:0.808" fill="#000000" d="M 427.5,29.5 C 429.167,29.5 430.833,29.5 432.5,29.5C 432.5,31.1667 432.5,32.8333 432.5,34.5C 430.833,34.5 429.167,34.5 427.5,34.5C 427.5,32.8333 427.5,31.1667 427.5,29.5 Z"/></g>
<g><path style="opacity:0.765" fill="#000000" d="M 434.5,29.5 C 436.167,29.5 437.833,29.5 439.5,29.5C 439.5,31.1667 439.5,32.8333 439.5,34.5C 437.833,34.5 436.167,34.5 434.5,34.5C 434.5,32.8333 434.5,31.1667 434.5,29.5 Z"/></g>
<g><path style="opacity:0.813" fill="#000000" d="M 479.5,29.5 C 481.167,29.5 482.833,29.5 484.5,29.5C 484.335,32.5184 484.502,35.5184 485,38.5C 487.587,35.9659 490.253,35.9659 493,38.5C 494.351,44.0716 494.851,49.7383 494.5,55.5C 492.833,55.5 491.167,55.5 489.5,55.5C 489.665,51.8183 489.499,48.1516 489,44.5C 487.886,40.7009 486.553,40.7009 485,44.5C 484.501,48.1516 484.335,51.8183 484.5,55.5C 482.833,55.5 481.167,55.5 479.5,55.5C 479.5,46.8333 479.5,38.1667 479.5,29.5 Z"/></g>
<g><path style="opacity:0.79" fill="#000000" d="M 595.5,29.5 C 595.5,38.1667 595.5,46.8333 595.5,55.5C 591.164,54.8502 586.831,54.5168 582.5,54.5C 578.554,48.964 578.554,43.464 582.5,38C 584.754,36.349 587.088,36.1823 589.5,37.5C 590.48,34.9135 590.813,32.2469 590.5,29.5C 592.167,29.5 593.833,29.5 595.5,29.5 Z M 585.5,41.5 C 586.833,41.5 588.167,41.5 589.5,41.5C 589.357,43.2624 589.691,44.9291 590.5,46.5C 590.047,48.5652 589.047,50.2318 587.5,51.5C 586.914,51.2907 586.414,50.9574 586,50.5C 585.502,47.5184 585.335,44.5184 585.5,41.5 Z"/></g>
<g><path style="opacity:1" fill="#385f87" d="M 92.5,32.5 C 91.5014,71.6631 91.1681,110.996 91.5,150.5C 91.5,151.167 91.1667,151.5 90.5,151.5C 90.5,111.5 90.5,71.5 90.5,31.5C 91.3274,30.5613 91.9941,30.8946 92.5,32.5 Z"/></g>
<g><path style="opacity:1" fill="#eff2f5" d="M 214.5,29.5 C 217.518,29.3354 220.518,29.502 223.5,30C 224,30.5 224.5,31 225,31.5C 225.667,50.8333 225.667,70.1667 225,89.5C 223.352,91.0284 221.352,91.6951 219,91.5C 216.648,91.6951 214.648,91.0284 213,89.5C 212.333,70.1667 212.333,50.8333 213,31.5C 213.717,30.9558 214.217,30.2891 214.5,29.5 Z"/></g>
<g><path style="opacity:1" fill="#f0f3f6" d="M 239.5,29.5 C 242.518,29.3354 245.518,29.502 248.5,30C 249,30.5 249.5,31 250,31.5C 250.5,39.1594 250.666,46.8261 250.5,54.5C 258.167,54.5 265.833,54.5 273.5,54.5C 273.334,46.8261 273.5,39.1594 274,31.5C 277.183,29.4766 280.683,28.9766 284.5,30C 285,30.5 285.5,31 286,31.5C 286.667,50.8333 286.667,70.1667 286,89.5C 282.817,91.5234 279.317,92.0234 275.5,91C 275,90.5 274.5,90 274,89.5C 273.5,81.5069 273.334,73.5069 273.5,65.5C 265.833,65.5 258.167,65.5 250.5,65.5C 250.666,73.5069 250.5,81.5069 250,89.5C 248.352,91.0284 246.352,91.6951 244,91.5C 241.648,91.6951 239.648,91.0284 238,89.5C 237.333,70.1667 237.333,50.8333 238,31.5C 238.717,30.9558 239.217,30.2891 239.5,29.5 Z"/></g>
<g><path style="opacity:1" fill="#f7f9fa" d="M 300.5,29.5 C 304.007,28.9935 307.174,29.6602 310,31.5C 310.333,39.8333 310.667,48.1667 311,56.5C 319.167,47.6667 327.333,38.8333 335.5,30C 339.486,29.5012 343.486,29.3345 347.5,29.5C 347.657,30.8734 347.49,32.2068 347,33.5C 340.833,40.3333 334.667,47.1667 328.5,54C 335.542,65.2515 342.709,76.4182 350,87.5C 350.684,88.7839 350.517,89.9505 349.5,91C 345.833,91.6667 342.167,91.6667 338.5,91C 332.376,81.9188 326.376,72.7521 320.5,63.5C 317.111,66.6001 313.945,69.9334 311,73.5C 310.83,79.1958 310.33,84.8624 309.5,90.5C 305.738,92.0904 302.238,91.757 299,89.5C 298.333,70.1667 298.333,50.8333 299,31.5C 299.717,30.9558 300.217,30.2891 300.5,29.5 Z"/></g>
<g><path style="opacity:1" fill="#fefefe" d="M 90.5,31.5 C 90.5,71.5 90.5,111.5 90.5,151.5C 77.3476,131.498 64.3476,111.331 51.5,91C 63.9545,70.731 76.9545,50.8976 90.5,31.5 Z"/></g>
<g><path style="opacity:1" fill="#013366" d="M 92.5,32.5 C 105.287,51.903 117.953,71.403 130.5,91C 118.045,111.269 105.045,131.102 91.5,150.5C 91.1681,110.996 91.5014,71.6631 92.5,32.5 Z"/></g>
<g><path style="opacity:0.801" fill="#000000" d="M 452.5,36.5 C 455.368,36.085 457.535,37.085 459,39.5C 459.499,44.8229 459.666,50.1563 459.5,55.5C 457.833,55.5 456.167,55.5 454.5,55.5C 454.827,50.7863 454.493,46.1196 453.5,41.5C 451.364,42.4724 450.197,44.1391 450,46.5C 449.502,49.4816 449.335,52.4816 449.5,55.5C 447.833,55.5 446.167,55.5 444.5,55.5C 444.5,49.5 444.5,43.5 444.5,37.5C 446.467,37.2606 448.301,37.5939 450,38.5C 450.995,37.9341 451.828,37.2674 452.5,36.5 Z"/></g>
<g><path style="opacity:0.784" fill="#000000" d="M 467.5,36.5 C 474.081,35.4279 477.414,38.0946 477.5,44.5C 475.833,44.5 474.167,44.5 472.5,44.5C 472.369,40.3482 470.869,39.6815 468,42.5C 467.035,49.6286 470.201,52.6286 477.5,51.5C 477.427,54.9496 475.594,56.283 472,55.5C 463.542,54.6184 460.542,49.9518 463,41.5C 464.025,39.313 465.525,37.6464 467.5,36.5 Z"/></g>
<g><path style="opacity:0.799" fill="#000000" d="M 502.5,36.5 C 509.167,35.8333 512.167,38.8333 511.5,45.5C 508.102,45.1796 504.768,45.513 501.5,46.5C 503.273,51.0195 506.607,52.6862 511.5,51.5C 511.5,52.8333 511.5,54.1667 511.5,55.5C 499.228,56.7274 494.728,51.3941 498,39.5C 499.409,38.2189 500.909,37.2189 502.5,36.5 Z M 502.5,40.5 C 503.978,40.238 505.311,40.5713 506.5,41.5C 505.833,41.8333 505.167,42.1667 504.5,42.5C 503.287,42.2528 502.62,41.5862 502.5,40.5 Z"/></g>
<g><path style="opacity:0.815" fill="#000000" d="M 522.5,36.5 C 525.808,35.9738 527.974,37.3072 529,40.5C 529.499,45.4889 529.666,50.4889 529.5,55.5C 527.833,55.5 526.167,55.5 524.5,55.5C 524.666,51.4862 524.499,47.4862 524,43.5C 522.314,40.978 520.981,41.3113 520,44.5C 519.501,48.1516 519.335,51.8183 519.5,55.5C 517.833,55.5 516.167,55.5 514.5,55.5C 514.5,49.5 514.5,43.5 514.5,37.5C 516.467,37.2606 518.301,37.5939 520,38.5C 520.995,37.9341 521.828,37.2674 522.5,36.5 Z"/></g>
<g><path style="opacity:0.816" fill="#000000" d="M 569.5,36.5 C 571.936,36.317 574.103,36.9837 576,38.5C 577.351,44.0716 577.851,49.7383 577.5,55.5C 575.833,55.5 574.167,55.5 572.5,55.5C 572.665,51.8183 572.499,48.1516 572,44.5C 570.886,40.7009 569.553,40.7009 568,44.5C 567.501,48.1516 567.335,51.8183 567.5,55.5C 565.833,55.5 564.167,55.5 562.5,55.5C 562.5,49.5 562.5,43.5 562.5,37.5C 564.467,37.2606 566.301,37.5939 568,38.5C 568.717,37.9558 569.217,37.2891 569.5,36.5 Z"/></g>
<g><path style="opacity:0.849" fill="#000000" d="M 426.5,37.5 C 428.167,37.5 429.833,37.5 431.5,37.5C 431.5,41.8333 431.5,46.1667 431.5,50.5C 433.124,50.6399 434.29,49.9733 435,48.5C 435.499,44.8484 435.665,41.1817 435.5,37.5C 437.167,37.5 438.833,37.5 440.5,37.5C 440.5,43.5 440.5,49.5 440.5,55.5C 437.359,54.9107 434.359,54.9107 431.5,55.5C 429.626,55.6102 428.126,54.9436 427,53.5C 426.501,48.1771 426.334,42.8437 426.5,37.5 Z"/></g>
<g><path style="opacity:0.82" fill="#000000" d="M 543.5,37.5 C 545.167,37.5 546.833,37.5 548.5,37.5C 548.335,41.1817 548.501,44.8484 549,48.5C 550.686,51.022 552.019,50.6887 553,47.5C 553.498,44.1832 553.665,40.8499 553.5,37.5C 555.167,37.5 556.833,37.5 558.5,37.5C 558.5,43.5 558.5,49.5 558.5,55.5C 553.986,55.0207 549.486,54.6873 545,54.5C 543.596,48.9562 543.096,43.2896 543.5,37.5 Z"/></g>
<g><path style="opacity:0.835" fill="#000000" d="M 400.5,65.5 C 406.898,64.0526 411.731,66.0526 415,71.5C 415.667,76.1667 415.667,80.8333 415,85.5C 414.315,88.0573 412.815,89.8906 410.5,91C 400.02,93.7663 394.686,89.7663 394.5,79C 394.238,73.3098 396.238,68.8098 400.5,65.5 Z M 403.5,69.5 C 405.722,69.178 407.556,69.8446 409,71.5C 411,76.1667 411,80.8333 409,85.5C 405.512,88.4615 402.845,87.7948 401,83.5C 399.806,78.3686 400.639,73.7019 403.5,69.5 Z"/></g>
<g><path style="opacity:0.826" fill="#000000" d="M 418.5,65.5 C 420.167,65.5 421.833,65.5 423.5,65.5C 423.5,68.1667 423.5,70.8333 423.5,73.5C 426.448,73.2229 429.281,73.5562 432,74.5C 433.545,79.0466 433.879,83.7133 433,88.5C 431.314,90.9185 428.981,91.9185 426,91.5C 423.648,91.6951 421.648,91.0284 420,89.5C 418.565,81.6112 418.065,73.6112 418.5,65.5 Z M 425.5,76.5 C 427.931,77.6068 428.931,79.6068 428.5,82.5C 427.11,90.0967 425.443,90.2633 423.5,83C 423.482,80.5897 424.149,78.423 425.5,76.5 Z"/></g>
<g><path style="opacity:0.821" fill="#000000" d="M 465.5,65.5 C 467.167,65.5 468.833,65.5 470.5,65.5C 470.335,68.5184 470.502,71.5184 471,74.5C 473.401,73.3977 475.901,73.231 478.5,74C 482.505,79.9614 482.171,85.6281 477.5,91C 474.5,91.6667 471.5,91.6667 468.5,91C 467.107,89.8289 466.273,88.3289 466,86.5C 465.5,79.5079 465.334,72.5079 465.5,65.5 Z M 472.5,76.5 C 473.496,76.4142 474.329,76.7476 475,77.5C 475.667,80.5 475.667,83.5 475,86.5C 471.697,87.6953 470.197,86.362 470.5,82.5C 470.611,80.2857 471.278,78.2857 472.5,76.5 Z"/></g>
<g><path style="opacity:0.81" fill="#000000" d="M 439.5,73.5 C 446.788,71.6168 450.454,74.2835 450.5,81.5C 447.102,81.1796 443.768,81.513 440.5,82.5C 442.391,87.4467 445.725,89.1134 450.5,87.5C 450.5,88.8333 450.5,90.1667 450.5,91.5C 441.464,93.8338 436.464,90.5005 435.5,81.5C 435.8,78.2335 437.133,75.5669 439.5,73.5 Z M 442.5,76.5 C 443.756,76.4614 444.756,76.9614 445.5,78C 444.167,78.6667 442.833,78.6667 441.5,78C 442.056,77.6174 442.389,77.1174 442.5,76.5 Z"/></g>
<g><path style="opacity:0.834" fill="#000000" d="M 453.5,73.5 C 456.935,74.3678 460.269,74.3678 463.5,73.5C 463.5,75.1667 463.5,76.8333 463.5,78.5C 461.61,78.2965 460.11,78.9632 459,80.5C 458.501,84.1516 458.335,87.8183 458.5,91.5C 456.833,91.5 455.167,91.5 453.5,91.5C 453.5,85.5 453.5,79.5 453.5,73.5 Z"/></g>
<g><path style="opacity:0.792" fill="#000000" d="M 486.5,73.5 C 489.518,73.3354 492.518,73.502 495.5,74C 496,74.5 496.5,75 497,75.5C 497.499,80.8229 497.666,86.1563 497.5,91.5C 492.901,91.8 488.401,91.4667 484,90.5C 482.267,83.3947 485.1,80.0614 492.5,80.5C 492.688,78.8967 492.188,77.5634 491,76.5C 488.959,78.6499 486.459,79.6499 483.5,79.5C 483.461,76.911 484.461,74.911 486.5,73.5 Z M 489.5,84.5 C 491.355,84.272 492.188,84.9387 492,86.5C 489.192,87.8596 488.359,87.1929 489.5,84.5 Z"/></g>
<g><path style="opacity:0.796" fill="#000000" d="M 498.5,73.5 C 500.5,73.5 502.5,73.5 504.5,73.5C 505.656,84.8119 507.656,85.1452 510.5,74.5C 512.045,73.5481 513.712,73.2148 515.5,73.5C 513.032,82.238 510.365,90.9047 507.5,99.5C 505.833,99.5 504.167,99.5 502.5,99.5C 503.058,96.6557 503.725,93.8224 504.5,91C 502.595,85.1193 500.595,79.286 498.5,73.5 Z"/></g>
<g><path style="opacity:0.833" fill="#000000" d="M 519.5,73.5 C 522.518,73.3354 525.518,73.502 528.5,74C 530.278,76.1354 530.945,78.6354 530.5,81.5C 527.15,81.335 523.817,81.5017 520.5,82C 522.149,87.1458 525.482,88.9791 530.5,87.5C 530.5,88.8333 530.5,90.1667 530.5,91.5C 518.671,93.1979 514.171,88.1979 517,76.5C 518.045,75.6266 518.878,74.6266 519.5,73.5 Z M 522.5,76.5 C 523.756,76.4614 524.756,76.9614 525.5,78C 524.167,78.6667 522.833,78.6667 521.5,78C 522.056,77.6174 522.389,77.1174 522.5,76.5 Z"/></g>
<g><path style="opacity:0.794" fill="#000000" d="M 533.5,73.5 C 537.167,74.8333 540.833,74.8333 544.5,73.5C 544.5,75.1667 544.5,76.8333 544.5,78.5C 541.762,77.9648 539.928,78.9648 539,81.5C 538.502,84.8168 538.335,88.1501 538.5,91.5C 536.833,91.5 535.167,91.5 533.5,91.5C 533.5,85.5 533.5,79.5 533.5,73.5 Z"/></g>
<g><path style="opacity:0.825" fill="#000000" d="M 546.5,73.5 C 550.938,73.7146 555.438,74.048 560,74.5C 561.351,80.0716 561.851,85.7383 561.5,91.5C 559.833,91.5 558.167,91.5 556.5,91.5C 556.725,86.752 556.225,82.0853 555,77.5C 553.667,78.1667 552.667,79.1667 552,80.5C 551.501,84.1516 551.335,87.8183 551.5,91.5C 549.833,91.5 548.167,91.5 546.5,91.5C 546.5,85.5 546.5,79.5 546.5,73.5 Z"/></g>
</svg>
