<svg xmlns="http://www.w3.org/2000/svg" style="shape-rendering:geometricPrecision;text-rendering:geometricPrecision;image-rendering:optimizeQuality;fill-rule:evenodd;clip-rule:evenodd" viewBox="0 0 427 204">
  <path style="opacity:.978" fill="#25b1eb" d="M199.5-.5h27c33.669 5.915 59.169 23.581 76.5 53a25.934 25.934 0 0 1 3.5 9 25.87 25.87 0 0 1-10-1C270.963 16.363 233.296.53 183.5 13c-24.12 8.958-42.12 24.791-54 47.5a25.87 25.87 0 0 1-10 1c10.812-26.311 29.478-44.811 56-55.5 7.959-2.82 15.959-4.987 24-6.5z"/>
  <path style="opacity:.894" fill="#1c344a" d="M-.5 82.5h44v7h-18v30h-8v-30h-18v-7z"/>
  <path style="opacity:.965" fill="#1c344a" d="M51.5 82.5h37v7h-30v8h29v6h-29v10h30v6h-37v-37z"/>
  <path style="opacity:.963" fill="#1c334a" d="M118.5 82.5c2.544-.396 4.711.271 6.5 2a1163.013 1163.013 0 0 0 22.5 34c-3 1.333-6 1.333-9 0l-17.5-27-17.5 27c-3 1.333-6 1.333-9 0 8.01-12.029 16.01-24.029 24-36z"/>
  <path style="opacity:.95" fill="#1c334a" d="M153.5 82.5c2.747-.313 5.414.02 8 1a664.545 664.545 0 0 0 20.5 28l20-28c2.381-.935 4.881-1.268 7.5-1v37h-7c.166-8.007 0-16.007-.5-24l-16.5 23c-3.721 1.686-6.887 1.019-9.5-2l-15-21c-.5 7.993-.666 15.993-.5 24h-7v-37z"/>
  <path style="opacity:.955" fill="#1c334a" d="M215.5 82.5c2.619-.268 5.119.065 7.5 1l12 26A963.347 963.347 0 0 1 247.5 83c1.941-.743 3.774-.576 5.5.5l12 26 12-26c2.466-1.277 4.966-1.277 7.5 0a825.975 825.975 0 0 1-16 35c-2.333 1.333-4.667 1.333-7 0a235.795 235.795 0 0 0-11.5-25 434.434 434.434 0 0 0-11.5 26 13.116 13.116 0 0 1-7-1c-5.345-12.022-10.679-24.022-16-36zM302.5 82.5a9.864 9.864 0 0 1 6 1 969.004 969.004 0 0 1 23 35c-3.441 1.506-6.608 1.173-9.5-1a337.185 337.185 0 0 0-17-26l-17 27c-3.073 1.117-6.24 1.284-9.5.5a1267.36 1267.36 0 0 0 24-36.5z"/>
  <path style="opacity:.959" fill="#1c334a" d="M338.5 82.5c12.38-.37 24.714.13 37 1.5a11.529 11.529 0 0 1 4.5 3.5c2.651 8.096.151 13.596-7.5 16.5l8 15a16.242 16.242 0 0 1-8 0 101.837 101.837 0 0 1-8-14.5 91.123 91.123 0 0 0-19-1v16h-7v-37zm7 7c9.025-.332 18.025.002 27 1 1.507 2.469 1.173 4.635-1 6.5-8.66.5-17.327.666-26 .5v-8z"/>
  <path style="opacity:.965" fill="#1c344a" d="M426.5 82.5v7h-30v8h29v6h-29v10h30v6h-37v-37h37z"/>
  <path style="opacity:.972" fill="#25b1eb" d="M222.5 203.5h-20c-30.073-3.787-54.24-17.787-72.5-42a77.477 77.477 0 0 1-10.5-21 40.914 40.914 0 0 1 9 .5c25.363 44.245 63.029 60.579 113 49 25.195-8.861 43.862-25.194 56-49a40.914 40.914 0 0 1 9-.5c-8.72 21.895-23.387 38.728-44 50.5-12.684 6.664-26.018 10.83-40 12.5z"/>
</svg>
